PathFileType	4	(x/y/z)	S08_P20_T11
DataRate	CameraRate	NumFrames	NumMarkers	Units	OrigDataRate	OrigDataStartFrame	OrigNumFrames
240	240	4	51	mm	240	145	386
Frame#	Time	Sternum			R.Acromium			L.Acromium			Top.Head			R.ASIS			L.ASIS			R.PSIS			L.PSIS			R.Great.Tro			L.Great.Tro			R.Iliac.Crest			L.Iliac.Crest			V.Sacral			R.Thigh.Upper.Post			R.Thigh.Lower.Ant			R.Thigh.Lower.Post			R.Thigh.Upper.Ant			R.Knee.Lat			R.Knee.Med			R.Shank.Upper.Post			R.Shank.Lower.Ant			R.Shank.Lower.Post			R.Shank.Upper.Ant			R.Ankle.Lat			R.Ankle.Med			R.Heel.Upper			R.Heel.Med			R.Heel.Lat			R.Toe.Lat			R.Toe.Med			R.Toe.Tip			L.Thigh.Upper.Post			L.Thigh.Lower.Ant			L.Thigh.Lower.Post			L.Thigh.Upper.Ant			L.Knee.Lat			L.Knee.Med			L.Shank.Upper.Post			L.Shank.Lower.Ant			L.Shank.Lower.Post			L.Shank.Upper.Ant			L.Ankle.Lat			L.Ankle.Med			L.Heel.Upper			L.Heel.Med			L.Heel.Lat			L.Toe.Lat			L.Toe.Med			L.Toe.Tip			Cervical.Spine			Back			
		X1	Y1	Z1	X2	Y2	Z2	X3	Y3	Z3	X4	Y4	Z4	X5	Y5	Z5	X6	Y6	Z6	X7	Y7	Z7	X8	Y8	Z8	X9	Y9	Z9	X10	Y10	Z10	X11	Y11	Z11	X12	Y12	Z12	X13	Y13	Z13	X14	Y14	Z14	X15	Y15	Z15	X16	Y16	Z16	X17	Y17	Z17	X18	Y18	Z18	X19	Y19	Z19	X20	Y20	Z20	X21	Y21	Z21	X22	Y22	Z22	X23	Y23	Z23	X24	Y24	Z24	X25	Y25	Z25	X26	Y26	Z26	X27	Y27	Z27	X28	Y28	Z28	X29	Y29	Z29	X30	Y30	Z30	X31	Y31	Z31	X32	Y32	Z32	X33	Y33	Z33	X34	Y34	Z34	X35	Y35	Z35	X36	Y36	Z36	X37	Y37	Z37	X38	Y38	Z38	X39	Y39	Z39	X40	Y40	Z40	X41	Y41	Z41	X42	Y42	Z42	X43	Y43	Z43	X44	Y44	Z44	X45	Y45	Z45	X46	Y46	Z46	X47	Y47	Z47	X48	Y48	Z48	X49	Y49	Z49	X50	Y50	Z50	X51	Y51	Z51	

145	0.6	-521.1	1215.1	308.23	-644.15	1447.9	488.71	-661.99	1479.6	155.03	-642.44	1769.7	341.45	-545.29	1005.5	414.27	-554.04	999.26	183.69	-751.2	1019.7	347.24	-748.5	1023.4	255.15	-594.88	896.56	488.63	-653.11	891.09	121.31	-640.87	1068.3	464.43	-648.34	1080.3	156.79	-765.82	980.63	301.32	-555.7	696.02	468.12	-453.42	627.01	427.48	-522.51	613.51	443.83	-480.76	715.62	451.2	-458.54	527.22	419.47	-497.75	522.57	298.66	-497.92	335.52	431.02	-432.95	280.61	402.23	-490.78	258.9	422.49	-439.63	357.95	412.56	-477.77	93.932	382.9	-452.47	114.38	304.76	-525.5	63.169	334.75	-510.41	36.894	306.68	-517.11	38.253	368.63	NaN	NaN	NaN	-326.51	54.108	292.65	-264.49	78.736	337.71	-692.41	685.09	141.09	-609.12	589.69	149.37	-679.46	595.08	153.76	-621.11	676.47	132.91	-682.18	498.57	164.47	-659.79	487.69	287.71	-834.52	396.08	167.07	-842.16	285.31	180.91	-884.26	342.56	183.05	-793.11	345.4	166.23	-979.19	195.12	194.96	-952.79	184.97	277.91	-1032.7	213.4	245.39	-1045.2	183.46	278.68	-1048.5	188.03	214.5	-940.08	57.62	187.02	-916.34	58.964	301.16	-863.34	38.919	255.21	-720.16	1504.9	318.32	-758.79	1220.7	318.13
146	0.60417	-515.47	1215.6	308.5	-638.21	1448.4	489.13	-656.68	1480	155.49	-636.9	1770.1	341.91	-539.59	1006.1	414.79	-548.29	999.46	184.27	-745.5	1020.1	347.46	-742.78	1023.5	255.34	-589.05	897.35	489.2	-646.69	890.66	121.8	-635.26	1069	464.76	-642.57	1080.3	157.06	-760.07	980.83	301.65	-550.27	696.56	468.9	-448.39	627.27	427.73	-517.41	613.96	444.57	-475.39	715.98	451.46	-454.09	527.18	419.78	-493.61	522.76	299.08	-495	335.59	431.49	-430.56	280.23	402.45	-488.47	258.94	422.84	-436.6	357.61	412.83	-477.22	93.955	382.93	-451.89	114.27	304.89	-525.29	63.394	334.84	-510.35	37.107	306.73	-517.03	38.413	368.69	NaN	NaN	NaN	-326.3	53.229	292.52	-264.03	77.4	337.55	-683.58	683.81	141.14	-599.16	589.43	148.96	-669.4	593.95	153.37	-612.13	676.17	132.78	-670.83	497.83	163.6	-647.66	486.44	287.01	-823.88	397.76	166.48	-833.35	287.02	180.01	-874.41	344.97	182.47	-783.28	346.45	165.49	-971.26	199.4	193.92	-945.16	188.7	277.04	-1023.7	219.9	244.35	-1037.5	190.67	277.77	-1040.5	195.12	213.53	-937.11	60.223	186.6	-913.48	61.124	300.68	-861.62	38.419	254.87	-714.6	1505.3	318.92	-753.12	1221.1	318.73
147	0.60833	-509.89	1216	308.74	-632.26	1448.9	489.53	-651.36	1480.3	155.93	-631.37	1770.5	342.35	-533.94	1006.8	415.31	-542.61	999.66	184.83	-739.84	1020.5	347.68	-737.13	1023.6	255.54	-583.29	898.17	489.78	-640.33	890.24	122.3	-629.71	1069.8	465.08	-636.87	1080.3	157.33	-754.37	981.05	301.98	-544.94	697.1	469.7	-443.49	627.5	427.99	-512.43	614.41	445.31	-470.11	716.32	451.75	-449.77	527.13	420.1	-489.54	522.95	299.48	-492.19	335.68	431.95	-428.27	279.88	402.66	-486.27	258.99	423.17	-433.68	357.29	413.09	-476.73	93.997	382.95	-451.36	114.18	305.01	-525.11	63.591	334.92	-510.28	37.303	306.78	-516.96	38.557	368.75	NaN	NaN	NaN	-326.12	52.466	292.4	-263.63	76.217	337.39	-674.71	682.57	141.17	-589.14	589.25	148.54	-659.29	592.88	152.96	-603.12	675.93	132.64	-659.37	497.15	162.72	-635.42	485.29	286.36	-813.03	399.46	165.89	-824.28	288.8	179.14	-864.32	347.41	181.9	-773.23	347.55	164.78	-963.03	203.71	192.88	-937.24	192.45	276.19	-1014.4	226.37	243.3	-1029.3	197.84	276.84	-1032.2	202.2	212.55	-933.78	63.001	186.13	-910.29	63.421	300.16	-859.61	37.959	254.46	-709.03	1505.7	319.49	-747.49	1221.5	319.3
148	0.6125	-504.35	1216.5	308.96	-626.32	1449.4	489.91	-646.04	1480.7	156.35	-625.84	1770.9	342.79	-528.34	1007.5	415.81	-537	999.86	185.38	-734.24	1020.9	347.91	-731.53	1023.7	255.74	-577.58	898.99	490.35	-634.02	889.83	122.8	-624.2	1070.6	465.38	-631.22	1080.3	157.59	-748.73	981.28	302.32	-539.72	697.63	470.48	-438.71	627.71	428.26	-507.59	614.84	446.05	-464.94	716.63	452.06	-445.58	527.07	420.41	-485.58	523.13	299.87	-489.5	335.77	432.39	-426.09	279.53	402.84	-484.17	259.06	423.49	-430.89	356.98	413.35	-476.28	94.055	382.96	-450.89	114.12	305.12	-524.95	63.762	335	-510.22	37.481	306.83	-516.89	38.685	368.81	NaN	NaN	NaN	-325.96	51.81	292.29	-263.28	75.174	337.24	-665.79	681.4	141.17	-579.08	589.16	148.12	-649.12	591.89	152.54	-594.07	675.76	132.49	-647.79	496.57	161.85	-623.12	484.27	285.74	-801.99	401.19	165.32	-814.99	290.65	178.31	-854.02	349.86	181.34	-762.98	348.7	164.11	-954.5	208.02	191.86	-929.04	196.22	275.38	-1004.8	232.76	242.26	-1020.8	204.94	275.9	-1023.5	209.24	211.57	-930.06	65.936	185.63	-906.72	65.843	299.58	-857.25	37.559	253.97	-703.46	1506.1	320.04	-741.9	1221.9	319.86
